<svg version="1.1" id="Layer_1" xmlns="http://www.w3.org/2000/svg" xmlns:xlink="http://www.w3.org/1999/xlink" x="0px" y="0px"
	 width="100%" viewBox="0 0 864 176" enable-background="new 0 0 864 176" xml:space="preserve">
<path fill="#000000" opacity="1.000000" stroke="none" 
	d="
M835.784546,122.907951 
	C828.330627,127.656601 820.343262,128.868774 812.197205,127.772614 
	C807.573181,127.150375 804.962769,123.340523 803.779846,118.825478 
	C803.458435,117.598549 804.103455,116.102699 802.436096,114.930359 
	C797.700439,116.666740 792.485229,117.633369 787.485962,119.154076 
	C780.654785,121.232056 773.731567,120.593140 766.866821,121.115608 
	C763.100159,121.402283 760.568359,118.638161 758.591980,115.508759 
	C755.303894,110.302567 755.122375,110.586380 750.350769,113.828560 
	C742.809265,118.952835 735.149658,123.972481 727.168091,128.359650 
	C719.970093,132.316071 713.643555,129.095200 711.189453,121.088158 
	C711.001038,120.473671 710.586609,119.928490 710.273865,119.344826 
	C707.844238,118.762039 705.753540,119.878929 704.141541,121.016495 
	C698.650757,124.891335 692.038757,125.581535 685.981323,127.753510 
	C678.556580,130.415756 673.887634,125.709801 674.015503,116.283249 
	C671.070251,116.536873 668.798279,118.205299 666.373962,119.590744 
	C661.462830,122.397469 656.170532,124.278397 650.535889,124.726814 
	C645.685547,125.112808 643.634583,122.993073 644.354919,118.307228 
	C645.087402,113.542419 642.855103,113.955826 639.859131,115.293465 
	C632.755676,118.464989 626.271057,122.831024 618.560059,124.888031 
	C610.537170,127.028236 605.674683,125.370438 602.103027,117.743973 
	C601.900940,117.312508 601.489380,116.979134 600.834961,116.189369 
	C597.685425,117.738182 594.480835,119.362419 591.235291,120.900124 
	C584.140381,124.261589 576.609558,126.328270 569.000366,128.074356 
	C565.775024,128.814468 562.260376,128.106201 560.025452,125.962692 
	C555.472595,121.596046 550.191956,122.674545 545.551392,124.064827 
	C534.359924,127.417747 529.238708,123.880859 524.055725,117.399925 
	C522.061462,114.906197 520.629028,114.441628 517.889099,115.926353 
	C515.182312,117.393143 512.021423,118.234497 509.789093,115.121552 
	C507.393036,111.780251 508.836823,108.699455 511.424561,106.226105 
	C514.892273,102.911758 517.110962,98.845200 518.947266,94.548752 
	C519.818298,92.510605 521.042969,90.287193 518.895813,87.578743 
	C515.171753,89.534981 511.115479,91.100365 507.704163,93.560188 
	C495.878174,102.087547 483.016754,109.339821 473.461670,120.753670 
	C472.542267,121.851944 471.153778,122.704521 469.814209,123.274002 
	C466.876038,124.523102 463.988281,123.858253 462.312531,121.260521 
	C460.823700,118.952553 461.621765,116.408867 463.785675,114.559685 
	C471.843567,107.673836 478.211517,99.165100 484.033356,90.575981 
	C490.432434,81.135231 494.463959,70.196068 495.584473,58.569344 
	C495.998077,54.277462 494.361603,53.285530 490.250305,54.233654 
	C485.353485,55.362930 481.618042,58.378498 477.794617,61.292713 
	C471.173187,66.339584 464.162842,70.981110 458.119232,76.649475 
	C452.828186,81.611977 446.681915,86.430962 446.211029,94.847618 
	C446.073547,97.304688 445.222809,100.132904 441.954102,100.049744 
	C438.606720,99.964592 436.948090,97.687111 436.733398,94.461411 
	C436.500031,90.955345 436.864441,87.724922 438.773468,84.433662 
	C445.078888,73.562500 454.014679,65.345482 463.960327,58.006317 
	C472.103455,51.997284 479.809814,45.317818 489.978821,42.691689 
	C493.150513,41.872601 496.160370,41.611008 499.305145,42.550037 
	C501.677948,43.258575 503.034790,44.873272 503.225647,47.196106 
	C503.877472,55.130268 505.086395,63.167553 503.023773,70.976929 
	C501.857269,75.393341 499.366730,79.458481 497.490356,83.689728 
	C496.773651,85.305817 495.718872,86.834366 495.851318,89.514977 
	C501.204071,86.224709 506.110779,83.264618 510.959137,80.211937 
	C515.391907,77.420952 519.716919,74.979141 525.381165,76.890358 
	C530.341858,78.564163 532.488586,80.867691 531.120361,85.944290 
	C529.993713,90.124725 529.857666,94.463013 528.506409,98.564476 
	C528.301086,99.187614 527.983215,100.336441 528.172668,100.444557 
	C532.896301,103.140747 531.771362,108.233795 533.364746,112.221695 
	C534.654175,115.448898 538.561035,116.154472 542.021973,116.036751 
	C550.133301,115.760857 557.276611,113.414108 562.773254,106.882011 
	C565.318726,103.856995 568.637817,101.482628 571.608521,98.815872 
	C573.295410,97.301567 575.266541,96.594559 577.542053,96.586945 
	C579.001282,96.582062 580.568665,95.952049 581.553345,97.672768 
	C582.567383,99.444626 582.594849,101.273460 581.341431,102.828331 
	C579.046631,105.675026 576.659424,108.460152 574.138855,111.107277 
	C572.477234,112.852348 571.651428,114.565491 573.003540,117.343697 
	C579.469727,116.506393 585.344482,114.039719 590.966370,110.847702 
	C593.417480,109.456009 595.705688,107.741913 598.242310,106.543518 
	C603.985291,103.830299 607.326721,99.250053 609.813293,93.557968 
	C615.440674,80.675995 624.558472,70.803391 636.707764,63.724468 
	C638.450317,62.709106 640.195068,61.685520 642.274658,61.737400 
	C644.849304,61.801632 647.708862,60.949726 649.515564,63.813972 
	C651.198669,66.482323 649.298035,68.432648 648.406372,70.729088 
	C642.826660,85.099159 631.883728,95.018547 620.555786,104.624779 
	C619.150085,105.816849 617.641235,106.783386 617.011719,108.666512 
	C616.523438,110.127296 615.907410,111.592918 617.124756,112.877899 
	C618.426941,114.252373 619.796326,113.300468 621.239075,112.828842 
	C632.774780,109.057877 643.383789,103.282738 654.120728,97.779846 
	C655.157715,97.248367 656.170593,96.657829 657.242798,96.209915 
	C658.839539,95.542877 660.520691,95.249054 661.927002,96.552979 
	C663.512695,98.023239 662.608459,99.716278 661.877808,101.146309 
	C660.896851,103.066177 659.540527,104.790291 658.472717,106.670784 
	C657.267517,108.793159 655.678528,110.876312 656.815857,113.652473 
	C659.950928,114.201797 662.244568,112.636642 664.556824,110.962112 
	C668.738342,107.933815 672.970520,104.973061 677.999084,103.444542 
	C681.140686,102.489609 684.257507,102.049385 686.925659,104.526894 
	C689.707458,107.110001 688.305786,109.977097 687.376221,112.852814 
	C686.991455,114.043106 686.002747,115.248581 687.330872,117.473083 
	C690.731750,116.435394 694.646973,115.794518 698.039307,114.104248 
	C709.262512,108.512131 719.799194,102.017433 727.194153,91.329216 
	C729.299255,88.286636 732.606079,86.082611 734.448486,82.641563 
	C735.145630,81.339584 736.803345,80.910828 738.298157,80.529594 
	C739.841492,80.136002 741.287964,79.974487 742.422913,81.328407 
	C743.624451,82.761772 742.855225,84.052536 742.141296,85.448608 
	C737.563782,94.400375 731.207764,102.097183 724.832886,109.745918 
	C722.105652,113.018021 720.906189,116.139343 723.040527,120.288246 
	C730.586853,119.328781 735.809265,113.980980 741.909546,110.504158 
	C752.231323,104.621284 758.768677,95.335129 763.310242,84.555031 
	C765.927856,78.341766 771.262207,74.870644 776.545593,71.387062 
	C778.132019,70.341026 780.184326,70.212868 781.707947,71.540321 
	C783.203552,72.843483 783.138428,74.584969 782.635986,76.579788 
	C781.900208,79.500916 780.005005,81.536797 778.264038,83.736359 
	C774.447754,88.557808 770.676392,93.418678 766.724365,98.127205 
	C764.745178,100.485207 763.477234,102.872246 765.018066,105.818787 
	C766.694702,109.025246 768.142517,111.770271 773.003418,111.882866 
	C784.983704,112.160362 796.140564,109.224518 806.433838,103.797188 
	C811.683289,101.029327 815.689819,95.893158 820.231750,91.798180 
	C823.177368,89.142410 826.407654,87.253494 830.564209,87.714973 
	C833.849426,88.079720 835.159546,90.261559 833.903564,92.977699 
	C831.090881,99.060234 827.293457,104.417526 820.321289,106.414841 
	C817.487915,107.226517 815.137573,108.611389 814.033875,111.519333 
	C819.595337,117.820572 825.051147,119.158882 831.660339,116.052658 
	C834.053650,114.927834 836.923462,112.258728 839.108215,115.581192 
	C841.159729,118.701241 837.821655,120.579826 835.784546,122.907951 
M632.391785,79.668892 
	C626.807190,80.585442 624.724121,84.859200 622.823059,88.968376 
	C625.889404,86.134216 629.128662,83.140205 632.391785,79.668892 
z"/>
<path fill="#000000" opacity="1.000000" stroke="none" 
	d="
M90.923592,92.798996 
	C87.584435,97.346771 84.581459,101.668686 82.429932,107.603424 
	C88.667206,103.202477 92.356720,97.551765 97.294556,93.235031 
	C111.117851,81.150497 124.085777,67.964653 140.488495,59.149857 
	C141.796600,58.446877 143.174744,57.814632 144.591751,57.385109 
	C148.798233,56.110054 150.103668,57.249973 149.564682,61.623688 
	C147.736603,76.458138 141.210968,89.366493 133.203110,101.688194 
	C128.710815,108.600471 124.360817,115.605209 119.751099,122.876846 
	C124.143509,125.766922 128.811630,126.402359 133.619461,126.527016 
	C134.766373,126.556763 136.155823,126.089355 137.020584,126.579491 
	C140.383423,128.485489 141.955185,126.616035 143.236572,123.974991 
	C148.609253,112.901260 156.980240,104.933990 168.132492,99.825783 
	C169.039719,99.410240 169.903244,98.834602 170.853195,98.587822 
	C176.155746,97.210358 179.720291,100.633064 178.173874,105.758400 
	C174.868896,116.712120 166.786743,123.350204 157.200668,128.587631 
	C155.730804,129.390717 152.822815,129.596268 153.832535,131.991440 
	C154.977676,134.707840 157.086670,132.842026 158.862000,132.006973 
	C168.533859,127.457664 177.649414,122.173653 185.560471,114.781776 
	C189.539841,111.063553 191.657410,107.504684 190.855057,101.823166 
	C189.317673,90.936676 192.125656,86.434608 201.272995,83.311424 
	C207.670456,81.127136 210.434174,83.802025 209.794327,90.409348 
	C209.276718,95.754272 207.806259,100.427826 204.591385,104.640182 
	C202.620743,107.222237 203.673981,109.629906 205.364807,112.538239 
	C210.728622,110.212128 216.021912,107.624702 221.523804,105.605743 
	C228.144043,103.176392 233.880325,108.007820 233.142349,115.072899 
	C233.056564,115.894218 232.757996,116.691025 232.615723,117.509232 
	C232.360596,118.976501 232.025650,120.460785 233.151367,122.228165 
	C236.141037,121.856262 238.414459,119.889755 240.649750,118.024963 
	C242.516541,116.467583 244.517014,115.557983 246.928558,115.349419 
	C251.495392,114.954460 254.048859,118.315163 252.371582,122.571510 
	C251.478928,124.836792 250.063080,126.992783 250.736832,129.968445 
	C254.020126,129.504013 256.574524,128.021011 258.968658,125.900383 
	C264.984863,120.571434 268.087769,120.909233 273.255585,126.850655 
	C275.923828,129.918304 278.958557,131.319839 283.420166,129.802689 
	C291.156525,127.171982 298.548889,123.956696 305.559143,119.787384 
	C309.042267,117.715820 313.124847,117.341080 316.894501,116.068268 
	C318.821014,115.417786 321.124969,115.149261 322.025116,117.593353 
	C322.916504,120.013672 321.156647,121.219391 319.138733,122.033722 
	C318.404755,122.329926 317.438843,122.250565 316.985382,123.579819 
	C317.966064,126.226791 318.975647,129.208023 318.298370,133.165543 
	C322.839813,132.376083 326.518494,130.698441 330.125366,128.912872 
	C332.807800,127.584930 335.290741,125.850372 337.984711,124.550041 
	C342.612213,122.316437 346.261963,123.957909 347.174225,128.492645 
	C348.089905,133.044403 351.664001,134.324966 355.769287,131.511673 
	C357.274292,130.480316 358.561493,129.100342 360.132751,128.202637 
	C364.062805,125.957268 366.418549,126.930893 367.247864,131.420303 
	C367.691742,133.823441 368.812225,135.253494 370.997803,135.280228 
	C373.764191,135.314102 375.835571,135.911179 375.436737,139.064972 
	C375.086823,141.832016 373.061951,143.606735 370.323853,143.697571 
	C367.562988,143.789154 364.550629,144.224075 362.108856,142.396774 
	C358.595642,139.767670 355.002930,140.310471 351.210144,141.579010 
	C342.790863,144.394913 342.718231,144.386200 337.709930,137.058319 
	C336.361694,135.085617 335.095734,135.613190 333.486053,136.435242 
	C329.054077,138.698608 324.791138,141.325165 319.941345,142.701431 
	C316.988983,143.539230 313.376923,144.418427 311.172455,142.837311 
	C305.076935,138.465408 300.854584,143.063446 296.411713,145.344528 
	C293.146942,147.020737 290.074158,148.797165 286.426636,149.572418 
	C278.104431,151.341248 274.548950,147.741241 277.017242,139.412903 
	C273.040588,136.221161 267.012909,135.765335 264.518097,130.276520 
	C260.502960,132.483154 257.017059,134.419891 254.531387,137.615921 
	C252.892929,139.722656 251.114548,140.372849 248.476776,139.877045 
	C241.766388,138.615814 241.213623,137.796219 241.854919,127.893532 
	C236.145737,128.566208 232.703751,133.058517 228.296967,135.639114 
	C224.603928,137.801743 221.410431,140.845016 218.098618,143.621094 
	C216.007858,145.373642 214.069977,145.924652 212.003845,143.726196 
	C210.022598,141.618027 211.219559,139.967926 212.542480,138.024109 
	C216.269196,132.548279 218.741394,126.396141 221.377121,120.360428 
	C221.983139,118.972694 221.608521,117.156738 221.685760,115.525948 
	C213.118668,115.711777 203.529999,122.852142 201.186249,130.378845 
	C200.694427,131.958221 200.019348,133.509918 199.215775,134.956055 
	C197.971390,137.195526 195.843704,137.815552 193.667206,136.776428 
	C191.598999,135.789017 191.844482,133.894501 192.767517,132.045670 
	C194.907990,127.758270 192.978531,123.629059 192.296844,119.042000 
	C189.369049,120.108849 187.193649,122.027443 185.344147,123.963326 
	C176.935928,132.764282 165.551346,136.620636 155.254623,142.206207 
	C151.406555,144.293640 144.970993,142.671585 141.334808,136.567535 
	C139.877975,134.121979 138.503067,133.700256 135.717697,134.383743 
	C131.299713,135.467804 126.681030,135.731903 122.148438,136.351532 
	C117.868439,136.936630 113.351219,135.730988 109.459557,139.119095 
	C107.723274,140.630722 104.821075,139.949066 103.108269,138.019348 
	C101.101768,135.758728 100.763672,132.494675 102.912636,130.733307 
	C107.957405,126.598412 106.985924,121.337532 106.647987,116.134483 
	C106.324646,111.156136 107.867844,107.040718 111.294640,103.459091 
	C113.607079,101.042168 116.231369,99.975380 119.353111,101.290573 
	C121.189163,102.064117 122.402275,101.946243 123.659286,100.355408 
	C131.266815,90.727615 136.749313,80.060402 139.615204,68.097198 
	C139.676743,67.840370 139.392609,67.500748 139.251419,67.154831 
	C137.342072,65.727066 136.278061,67.630440 134.920364,68.318069 
	C126.843201,72.408882 121.986282,80.134079 115.275261,85.730431 
	C102.798691,96.134666 93.992088,109.941856 82.266472,120.865677 
	C74.808273,127.813896 68.432968,136.018356 59.771072,141.692551 
	C57.122238,143.427765 54.528564,143.548065 51.743736,142.264282 
	C48.078678,140.574738 47.619091,137.834854 50.234451,134.733353 
	C59.670208,123.543678 68.522644,111.962929 75.176254,98.808594 
	C79.071228,91.108139 84.773895,84.440254 88.403389,76.559608 
	C92.372589,67.941353 96.022163,59.224236 96.311287,49.524117 
	C96.336967,48.662495 96.281273,47.868855 95.579865,47.260719 
	C94.705704,46.746326 93.876518,47.116344 93.301346,47.670494 
	C85.235107,55.441967 74.890900,59.921955 66.079872,66.558441 
	C59.866577,71.238304 54.596722,77.149345 48.645046,82.203842 
	C42.457359,87.458771 38.530701,94.418182 33.862560,100.814240 
	C31.064331,104.648224 30.168882,109.303322 29.766500,113.929253 
	C29.618410,115.631721 29.327702,116.926003 27.807375,117.548561 
	C26.081024,118.255470 25.047417,116.914062 24.033243,115.813385 
	C20.088739,111.532440 22.716856,106.989418 24.423183,103.244324 
	C28.715347,93.823769 35.187027,85.906044 42.818878,78.775368 
	C47.946716,73.984276 53.529793,69.809807 58.988964,65.518211 
	C70.683434,56.324879 82.367722,47.055382 95.148323,39.349239 
	C97.252960,38.080238 99.682953,36.775826 102.116455,38.738537 
	C104.409996,40.588364 103.755760,43.073418 103.559532,45.611206 
	C103.202110,50.233788 103.427017,54.898468 103.174622,59.532822 
	C102.836121,65.748222 100.250839,71.431236 98.264076,77.185562 
	C96.435493,82.481735 93.563019,87.417488 90.923592,92.798996 
M297.623718,131.216125 
	C288.930420,134.832397 288.930420,134.832397 288.340057,140.004044 
	C294.784760,138.290085 299.369202,134.148926 305.147461,130.156815 
	C301.962311,129.526810 300.123596,130.219772 297.623718,131.216125 
M157.416885,118.504128 
	C157.400513,118.665848 157.330246,118.848770 157.383163,118.983223 
	C157.434311,119.113190 157.641785,119.303047 157.730438,119.279312 
	C161.031433,118.395432 163.994812,117.028427 165.506653,113.586578 
	C162.696045,114.744484 159.737656,115.591637 157.416885,118.504128 
z"/>
<path fill="#000000" opacity="1.000000" stroke="none" 
	d="
M702.327515,68.511108 
	C702.212708,65.350899 703.490356,63.803345 706.387329,63.692146 
	C708.905090,63.595505 711.290283,64.121902 712.059265,66.725784 
	C713.005066,69.928513 716.795227,73.822884 712.180298,76.449799 
	C707.628723,79.040680 706.124512,74.069824 703.906860,71.458305 
	C703.276001,70.715408 702.913635,69.744545 702.327515,68.511108 
z"/>
</svg>